<svg id="Glyph" xmlns="http://www.w3.org/2000/svg" width="14.884" height="21" viewBox="0 0 14.884 21">
  <path id="Trazado_35" data-name="Trazado 35" d="M26.176,6.841C26.176,2.686,23.257,0,18.734,0s-7.442,2.686-7.442,6.841c0,3.464,5.862,10.417,6.532,11.2l.819.961c-3.429.008-6.195.453-6.195,1s2.816,1,6.29,1,6.29-.449,6.29-1-2.769-.994-6.2-1l.824-.961C20.314,17.253,26.176,10.3,26.176,6.841Zm-9.852,0A2.288,2.288,0,0,1,18.734,4.7a2.288,2.288,0,0,1,2.41,2.141,2.288,2.288,0,0,1-2.41,2.141A2.288,2.288,0,0,1,16.324,6.837Z" transform="translate(-11.292)" fill="#4b4b4b"/>
</svg>
