<svg id="Layer_2" data-name="Layer 2" xmlns="http://www.w3.org/2000/svg" width="18.102" height="16.524" viewBox="0 0 18.102 16.524">
  <path id="Trazado_38" data-name="Trazado 38" d="M19.874,13.174A.733.733,0,0,1,19.387,13l-2.952-2.606A4.072,4.072,0,0,1,15,7.325a4.072,4.072,0,0,1,1.434-3.064h0a5.342,5.342,0,0,1,6.879,0,4.072,4.072,0,0,1,1.434,3.064,4.072,4.072,0,0,1-1.434,3.064L20.361,13a.733.733,0,0,1-.487.178Zm0-8.9a3.716,3.716,0,0,0-2.472.9h0a2.789,2.789,0,0,0,0,4.3l2.472,2.18,2.472-2.18a2.789,2.789,0,0,0,0-4.3,3.731,3.731,0,0,0-2.472-.9Zm-2.952.445Z" transform="translate(-6.645 -3.007)" fill="#4b4b4b"/>
  <path id="Trazado_39" data-name="Trazado 39" d="M8.57,20.255a.749.749,0,0,1-.348-.083L3.348,17.63A.628.628,0,0,1,3,17.077V5.634a.628.628,0,0,1,.348-.553.754.754,0,0,1,.7,0L8.918,7.624a.628.628,0,0,1,.348.553V19.62a.628.628,0,0,1-.348.553A.749.749,0,0,1,8.57,20.255ZM4.393,16.708l3.481,1.818V8.546L4.393,6.728Z" transform="translate(-3 -3.731)" fill="#4b4b4b"/>
  <path id="Trazado_40" data-name="Trazado 40" d="M10.7,20.464a.749.749,0,0,1-.348-.083A.628.628,0,0,1,10,19.828V8.385a.628.628,0,0,1,.348-.553l4.178-2.18a.755.755,0,0,1,.532-.061.69.69,0,0,1,.422.3.607.607,0,0,1-.258.865l-3.829,2v9.981l3.829-2a.736.736,0,0,1,.954.235.609.609,0,0,1-.258.871l-4.874,2.543A.749.749,0,0,1,10.7,20.464Z" transform="translate(-5.126 -3.94)" fill="#4b4b4b"/>
  <path id="Trazado_41" data-name="Trazado 41" d="M22.57,23.536a.749.749,0,0,1-.348-.083L17.348,20.91A.628.628,0,0,1,17,20.357V14.636a.7.7,0,0,1,1.393,0v5.353l3.481,1.818V15.271a.7.7,0,0,1,1.393,0V22.9a.628.628,0,0,1-.348.553A.749.749,0,0,1,22.57,23.536Z" transform="translate(-7.252 -7.011)" fill="#4b4b4b"/>
  <path id="Trazado_42" data-name="Trazado 42" d="M21.089,10.814A2,2,0,0,1,19,8.907a2.1,2.1,0,0,1,4.178,0,2,2,0,0,1-2.089,1.907Zm0-2.543a.638.638,0,1,0,.7.636A.668.668,0,0,0,21.089,8.271Z" transform="translate(-7.86 -4.461)" fill="#4b4b4b"/>
</svg>
