<svg id="Icons" xmlns="http://www.w3.org/2000/svg" width="26.286" height="24" viewBox="0 0 26.286 24">
  <g id="Rounded">
    <g id="Notification">
      <g id="_-Round-_-Notification-_-phone_in_talk" data-name="-Round-/-Notification-/-phone_in_talk">
        <g id="Grupo_187" data-name="Grupo 187">
          <path id="Path" d="M0,0H26.286V24H0Z" fill="none" fill-rule="evenodd"/>
          <path id="_-Icon-Color" data-name="🔹-Icon-Color" d="M13.819,5.05a7.344,7.344,0,0,1,6.648,6.07,1.06,1.06,0,0,0,1.084.88.583.583,0,0,0,.131-.01,1.025,1.025,0,0,0,.953-1.12,9.443,9.443,0,0,0-8.554-7.81,1.079,1.079,0,0,0-1.216.88A1.011,1.011,0,0,0,13.819,5.05Zm.416,2.11a1.108,1.108,0,0,0-1.336.72.992.992,0,0,0,.789,1.22,3.157,3.157,0,0,1,2.355,2.15A1.086,1.086,0,0,0,17.1,12a1.276,1.276,0,0,0,.274-.03,1.012,1.012,0,0,0,.789-1.22A5.28,5.28,0,0,0,14.235,7.16Zm6.539,8.1-2.782-.29a2.308,2.308,0,0,0-1.8.57L14.18,17.38a15.837,15.837,0,0,1-7.218-6.59L8.989,8.94A1.89,1.89,0,0,0,9.613,7.3L9.3,4.78a2.132,2.132,0,0,0-2.18-1.77H5.221A2.077,2.077,0,0,0,3.03,5.08c.58,8.54,8.061,15.36,17.4,15.89a2.094,2.094,0,0,0,2.267-2V17.24A2.055,2.055,0,0,0,20.773,15.26Z" transform="translate(0.288)" fill="#4b4b4b" fill-rule="evenodd"/>
        </g>
      </g>
    </g>
  </g>
</svg>
